PathFileType	4	(X/Y/Z)	C:\Users\willi\Desktop\Data_PaperCallum_v2\17_Akif\Gait03\marker_experimental_temp.trc
DataRate	CameraRate	NumFrames	NumMarkers	Units	OrigDataRate	OrigDataStartFrame	OrigNumFrames
100.000000	100.000000	6	27	mm	100.000000	98	158
Frame#	Time	C7			T10			Clav			Sternum			Right_Back			PCL_CRAN			PCL_RECHTS			PCL_LINKS			RCL_UL_CRAN			RCL_UL_POST			RCL_UL_ANT			RCL_LL_CRAN			RCL_LL_POST			RCL_LL_ANT			Right_Heel			Right_Toe			Right_M5			LCL_UL_CRAN			LCL_UL_POST			LCL_UL_ANT			LCL_LL_CRAN			LCL_LL_POST			LCL_LL_ANT			Left_Heel			Left_Toe			Left_M5			*26			
		X1	Y1	Z1	X2	Y2	Z2	X3	Y3	Z3	X4	Y4	Z4	X5	Y5	Z5	X6	Y6	Z6	X7	Y7	Z7	X8	Y8	Z8	X9	Y9	Z9	X10	Y10	Z10	X11	Y11	Z11	X12	Y12	Z12	X13	Y13	Z13	X14	Y14	Z14	X15	Y15	Z15	X16	Y16	Z16	X17	Y17	Z17	X18	Y18	Z18	X19	Y19	Z19	X20	Y20	Z20	X21	Y21	Z21	X22	Y22	Z22	X23	Y23	Z23	X24	Y24	Z24	X25	Y25	Z25	X26	Y26	Z26	X27	Y27	Z27	

99	0.98	35.45498275756829	1388.90283203125	203.6820526123047	74.46923828124994	1172.65966796875	201.6438751220703	-107.5675888061524	1313.8232421875	200.4347381591797	-163.9568939208985	1149.11328125	216.6246185302734	77.69046783447257	1327.045288085938	99.93442535400391	65.56864929199214	1001.127807617188	183.1334991455078	71.72692871093746	941.5196533203125	159.0813293457031	78.56849670410152	941.6022338867188	209.2830657958984	-112.70068359375	713.2146606445313	20.49956130981446	-110.2129364013672	647.329345703125	21.06986808776856	-157.1720428466797	666.9597778320313	19.13414192199708	-207.2003936767578	375.3676452636719	48.8924903869629	-208.0728302001953	311.0937805175781	44.37219619750978	-255.145980834961	330.0472412109375	45.8467140197754	-304.7531127929688	24.66403770446776	125.8573150634766	-473.0460510253906	110.1920013427734	81.79922485351565	-435.7574768066406	74.55815887451169	37.12544250488284	17.53932380676267	742.7579956054688	370.1421203613281	43.18988800048826	683.5050048828125	359.3912048339844	-5.468694686889668	681.3720703125	369.1813659667969	151.8971557617188	384.989013671875	329.2223205566406	195.6863098144531	336.2415161132813	332.0964050292969	148.1583251953125	319.9667358398438	325.5468139648438	325.6743469238281	72.91741180419923	245.039794921875	126.3125915527344	29.94341278076173	251.8949279785156	175.9331207275391	11.32374286651612	312.8027038574219	-88.05962371826196	726.4727172851563	-3209.545654296875	
100	0.99	20.77426528930657	1386.409912109375	201.9616088867188	59.15081405639643	1170.095581054688	199.8245086669922	-122.5977783203126	1311.66552734375	198.8347930908203	-179.335678100586	1147.052124023438	215.4275665283203	62.93194580078118	1324.208251953125	98.70967102050781	49.80314254760737	998.5151977539063	181.0600433349609	55.71102142333979	938.8878784179688	156.9075317382813	62.74531936645504	938.9232177734375	207.0859832763672	-129.5099334716797	710.396484375	19.49632835388184	-126.8329467773438	644.6148071289063	19.36896896362305	-173.9091796875	663.8875732421875	17.59263992309571	-225.6036071777344	373.4494323730469	49.84898376464845	-227.7073516845703	309.5675354003906	44.23997879028322	-274.3396911621094	328.8976440429688	47.30445480346681	-324.7749328613281	23.13038253784178	126.4140014648438	-493.16845703125	111.5197448730468	87.46667480468753	-457.7771911621094	75.17367553710935	41.68071746826175	4.99990892410276	741.6619262695313	369.5797729492188	31.26939773559568	682.6185302734375	359.2231140136719	-17.30221366882326	680.0277099609375	369.2192993164063	143.1898345947266	385.3207092285156	329.8655090332031	188.0296630859375	337.5567321777344	332.8847045898438	140.8202056884766	320.2261047363281	326.2276611328125	324.4313354492188	77.25180816650392	246.6043395996093	126.0892944335938	29.97768783569337	252.1484832763672	175.7724151611328	11.2257480621338	312.9452514648438	-88.05920410156274	726.4717407226563	-3209.53955078125	
101	1	6.048918724059987	1384.038330078125	200.179931640625	43.70392227172846	1167.615600585938	198.032470703125	-137.6854248046876	1309.677490234375	197.1939849853516	-194.872543334961	1145.20166015625	214.1611480712891	48.10391998291009	1321.429565429688	97.40521240234375	33.82678604125972	996.049560546875	179.1356811523438	39.52329254150386	936.4373168945313	154.8184204101563	46.68943023681636	936.3628540039063	204.9780731201172	-147.0077362060547	708.0963134765625	18.57065391540528	-144.8994293212891	642.5349731445313	18.25230789184571	-191.8889923095703	661.82666015625	16.5489959716797	-243.62060546875	371.5850524902344	50.72600173950197	-246.0338592529297	307.9408569335938	44.20109939575197	-292.5059509277344	327.1636352539063	48.94225692749026	-340.1987609863281	21.15333747863767	127.3981628417969	-509.5267333984375	110.0272140502929	94.15334320068362	-475.7965393066406	73.54985809326169	47.02835083007815	-8.088068008422875	740.4811401367188	368.94189453125	18.7325744628906	681.5811767578125	358.8947143554688	-29.7221374511719	678.6071166992188	369.1889953613281	133.8663330078125	385.5930480957031	330.6615905761719	179.7927856445313	338.8685913085938	333.78515625	132.9339447021484	320.4156494140625	327.0159912109375	322.9451599121094	81.99179840087892	248.3186340332031	125.7796859741211	30.00274276733399	252.4600677490234	175.6063690185547	11.10251808166505	313.0721130371094	-88.05879974365259	726.4707641601563	-3209.533935546875	
102	1.01	-8.711795806884838	1381.829223632813	198.3424530029297	28.14939308166498	1165.265502929688	196.2735900878906	-152.8164215087891	1307.895874023438	195.5272216796875	-210.5467376708985	1143.597900390625	212.8439178466797	33.20682907104485	1318.754760742188	96.01766204833984	17.67304801940913	993.7791748046875	177.3713989257813	23.19857788085933	934.2159423828125	152.8271026611328	30.43885993957515	933.9711303710938	202.972412109375	-165.0578308105469	706.337646484375	17.75680923461915	-164.0891418457032	641.0508422851563	17.80028152465821	-210.8195037841797	660.6981811523438	16.20633125305177	-261.1937866210938	369.7660827636719	51.48751449584962	-262.9728393554688	306.0974731445313	44.49404144287111	-309.6006469726563	324.8431701660156	50.69564437866213	-351.4857482910156	19.02582931518553	128.635498046875	-522.60595703125	105.7256088256836	101.3803024291992	-490.1322631835938	69.72393798828122	52.79391860961917	-21.76860618591311	739.2093505859375	368.2194213867188	5.516820430755596	680.3851928710938	358.3594055175781	-42.79477691650393	677.1156616210938	369.0697631835938	123.8709259033203	385.8258361816406	331.6134338378906	170.9452819824219	340.2152099609375	334.7550048828125	124.4889144897461	320.55712890625	327.9021301269531	321.0913696289063	87.22017669677736	250.0770568847656	125.4217300415039	29.98254585266114	252.8382720947266	175.5086517333985	10.95257854461671	313.1423950195313	-88.05841064453149	726.4698486328125	-3209.528564453125	
103	1.02	-23.49787521362312	1379.822387695313	196.4556884765625	12.51250839233393	1163.091064453125	194.5523986816406	-167.9749603271485	1306.354614257813	193.8508758544922	-226.330795288086	1142.271728515625	211.4967803955078	18.24223518371575	1316.231323242188	94.54425048828125	1.384937405586193	991.7485961914063	175.7722320556641	6.779041767120313	932.2666015625	150.9433898925781	14.04057884216304	931.7951049804688	201.0784912109375	-183.4722290039063	705.1143798828125	17.04883575439454	-183.8984680175782	640.095947265625	17.9076156616211	-230.2684020996094	660.310302734375	16.59999656677248	-278.3020935058594	368.0359497070313	52.07997512817384	-278.6193542480469	304.0556030273438	45.2595558166504	-325.6954650878906	322.0897216796875	52.45135498046877	-359.3276062011719	17.15811347961424	129.9053955078125	-533.0582885742188	98.92668151855466	108.5927429199219	-501.273193359375	63.98297500610349	58.54112243652347	-36.08064270019533	737.8471069335938	367.4099426269531	-8.428339004516621	679.041259765625	357.616455078125	-56.58219146728518	675.5711059570313	368.8518981933594	113.1195678710937	386.0494689941406	332.7316589355469	161.4223937988281	341.6556701660156	335.7601013183594	115.4457473754883	320.6954345703125	328.868408203125	318.6781311035156	93.05805969238283	251.7575073242187	125.0876922607422	29.87265205383301	253.2802581787109	175.5684509277344	10.79319572448732	313.1076354980469	-88.05803680419946	726.468994140625	-3209.5234375	
104	1.03	-38.29859924316413	1378.055297851563	194.5273742675781	-3.177528142929136	1161.136962890625	192.8724517822266	-183.1437377929688	1305.083251953125	192.1823883056641	-242.1908416748047	1141.248046875	210.142333984375	3.213235855102464	1313.907348632813	92.9832763671875	-14.98646545410161	989.9971923828125	174.3374481201172	-9.687152862548876	930.6256103515625	149.1734771728516	-2.451067924499557	929.8772583007813	199.3020324707031	-202.0356140136719	704.3975219726563	16.40121841430665	-203.7639465332032	639.5941772460938	18.32760429382326	-249.7612915039063	660.41845703125	17.58804321289064	-294.9637145996094	366.4889831542969	52.43923950195315	-293.2559814453125	301.9891662597656	46.46205902099612	-340.9791564941406	319.2018737792969	54.05585098266604	-364.5599365234375	15.95501899719236	130.9848785400391	-541.597412109375	90.19618988037107	115.2464599609375	-509.816162109375	56.80982971191403	63.83501434326175	-51.05532836914065	736.4022827148438	366.5182495117188	-23.1431522369385	677.5762329101563	356.7070617675781	-71.14101409912111	674.0015258789063	368.5365600585938	101.4958190917969	386.3009338378906	334.0316162109375	151.1149139404297	343.2630310058594	336.7742919921875	105.7238235473633	320.9009704589844	329.9017639160156	315.4390563964844	99.66075897216798	253.2242584228515	124.879020690918	29.63325500488282	253.7658996582031	175.8748321533203	10.68167018890382	312.9164733886719	-88.05768585205102	726.4681396484375	-3209.518798828125	
